HIERARCHY
ROOT Hips
{
	OFFSET 0.00000 0.00000 0.00000
	CHANNELS 6 Xposition Yposition Zposition Zrotation Yrotation Xrotation 
	JOINT LHipJoint
	{
		OFFSET 0 0 0
		CHANNELS 3 Zrotation Yrotation Xrotation
		JOINT LeftUpLeg
		{
			OFFSET 1.09156 -1.61406 0.76500
			CHANNELS 3 Zrotation Yrotation Xrotation
			JOINT LeftLeg
			{
				OFFSET 2.33750 -6.42225 0.00000
				CHANNELS 3 Zrotation Yrotation Xrotation
				JOINT LeftFoot
				{
					OFFSET 2.49247 -6.84800 0.00000
					CHANNELS 3 Zrotation Yrotation Xrotation
					JOINT LeftToeBase
					{
						OFFSET 0.15312 -0.42069 1.45461
						CHANNELS 3 Zrotation Yrotation Xrotation
						End Site
						{
							OFFSET 0.00000 -0.00000 0.77046
						}
					}
				}
			}
		}
	}
	JOINT RHipJoint
	{
		OFFSET 0 0 0
		CHANNELS 3 Zrotation Yrotation Xrotation
		JOINT RightUpLeg
		{
			OFFSET -0.99883 -1.61406 0.76500
			CHANNELS 3 Zrotation Yrotation Xrotation
			JOINT RightLeg
			{
				OFFSET -2.36877 -6.50815 0.00000
				CHANNELS 3 Zrotation Yrotation Xrotation
				JOINT RightFoot
				{
					OFFSET -2.53452 -6.96353 0.00000
					CHANNELS 3 Zrotation Yrotation Xrotation
					JOINT RightToeBase
					{
						OFFSET -0.13156 -0.36145 1.63237
						CHANNELS 3 Zrotation Yrotation Xrotation
						End Site
						{
							OFFSET -0.00000 -0.00000 0.84979
						}
					}
				}
			}
		}
	}
	JOINT LowerBack
	{
		OFFSET 0 0 0
		CHANNELS 3 Zrotation Yrotation Xrotation
		JOINT Spine
		{
			OFFSET -0.02431 1.98242 -0.13616
			CHANNELS 3 Zrotation Yrotation Xrotation
			JOINT Spine1
			{
				OFFSET 0.03629 1.98974 -0.02954
				CHANNELS 3 Zrotation Yrotation Xrotation
				JOINT Neck
				{
					OFFSET 0 0 0
					CHANNELS 3 Zrotation Yrotation Xrotation
					JOINT Neck1
					{
						OFFSET 0.09349 1.40783 0.22333
						CHANNELS 3 Zrotation Yrotation Xrotation
						JOINT Head
						{
							OFFSET -0.04273 1.44500 -0.06495
							CHANNELS 3 Zrotation Yrotation Xrotation
							End Site
							{
								OFFSET -0.02251 1.44600 -0.04544
							}
						}
					}
				}
				JOINT LeftShoulder
				{
					OFFSET 0 0 0
					CHANNELS 3 Zrotation Yrotation Xrotation
					JOINT LeftArm
					{
						OFFSET 3.49137 0.85126 -0.29740
						CHANNELS 3 Zrotation Yrotation Xrotation
						JOINT LeftForeArm
						{
							OFFSET 5.06035 -0.00000 0.00000
							CHANNELS 3 Zrotation Yrotation Xrotation
							JOINT LeftHand
							{
								OFFSET 3.14780 -0.00000 0.00000
								CHANNELS 3 Zrotation Yrotation Xrotation
								JOINT LeftFingerBase
								{
									OFFSET 0 0 0
									CHANNELS 3 Zrotation Yrotation Xrotation
									JOINT LeftHandIndex1
									{
										OFFSET 0.60675 -0.00000 0.00000
										CHANNELS 3 Zrotation Yrotation Xrotation
										End Site
										{
											OFFSET 0.48918 -0.00000 0.00000
										}
									}
								}
								JOINT LThumb
								{
									OFFSET 0 0 0
									CHANNELS 3 Zrotation Yrotation Xrotation
									End Site
									{
										OFFSET 0.49664 -0.00000 0.49664
									}
								}
							}
						}
					}
				}
				JOINT RightShoulder
				{
					OFFSET 0 0 0
					CHANNELS 3 Zrotation Yrotation Xrotation
					JOINT RightArm
					{
						OFFSET -3.28101 0.69707 0.00747
						CHANNELS 3 Zrotation Yrotation Xrotation
						JOINT RightForeArm
						{
							OFFSET -5.12273 -0.00000 -0.00000
							CHANNELS 3 Zrotation Yrotation Xrotation
							JOINT RightHand
							{
								OFFSET -3.42200 -0.00000 0.00000
								CHANNELS 3 Zrotation Yrotation Xrotation
								JOINT RightFingerBase
								{
									OFFSET 0 0 0
									CHANNELS 3 Zrotation Yrotation Xrotation
									JOINT RightHandIndex1
									{
										OFFSET -0.70460 -0.00000 0.00000
										CHANNELS 3 Zrotation Yrotation Xrotation
										End Site
										{
											OFFSET -0.56807 -0.00000 0.00000
										}
									}
								}
								JOINT RThumb
								{
									OFFSET 0 0 0
									CHANNELS 3 Zrotation Yrotation Xrotation
									End Site
									{
										OFFSET -0.57674 -0.00000 0.57674
									}
								}
							}
						}
					}
				}
			}
		}
	}
}
MOTION
Frames: 11
Frame Time: 0.117647
0.00 0.00 0.00 0 0 0 0 0 0 -21 0 0 0 0 0 0 0 0 0 0 0 0 0 0 21 0 0 0 0 0 0 0 0 0 0 0 0 0 0 0 0 0 0 0 0 0 0 -16 0 0 21 0 0 11 0 0 0 -8 0 0 0 0 0 0 0 0 0 0 0 0 0 0 0 0 0 0 0 0 8 0 0 0 0 0 0 0 0 0 0 0 0 0 0 0 0 0
0.00 0.00 0.00 -178.7490 50.5646 -171.0120 0.0000 0.0000 0.0000 -15.0050 5.4565 -0.5518 2.0036 8.8735 25.4005 -3.5417 31.0967 -12.4851 2.0646 8.9994 25.7936 0.0000 0.0000 0.0000 21.6147 5.0982 -17.2156 -1.7381 -8.2978 23.6224 -0.4235 -5.0069 -15.1550 -0.1118 2.1561 -5.9374 -4.2725 -4.4410 -3.5837 5.6857 -5.8458 3.2282 7.8659 -3.1819 6.4618 0.1203 -12.2112 -6.0224 4.8980 -17.2430 33.7757 -0.1394 -6.3565 12.7120 0.0000 0.0000 0.0000 -93.0335 -7.8156 7.6687 9.0786 -15.2856 -1.2208 -0.0000 -0.0000 4.0569 15.1387 41.5344 10.1702 -7.1250 0.0000 -0.0000 -31.9943 70.1264 -19.8843 0.0000 0.0000 0.0000 85.8261 8.8014 -19.1990 -5.7209 9.7959 -0.4907 0.0000 0.0000 34.8602 -18.3115 30.7274 -9.5977 7.1250 -0.0000 -0.0000 7.4214 1.8332 7.7192
0.00 0.00 0.00 -175.8110 54.4702 -169.7680 0.0000 0.0000 0.0000 -11.1526 4.5860 -6.7548 5.0638 13.4553 41.0975 -1.1849 19.4423 -2.1429 1.6797 8.1644 23.2145 0.0000 0.0000 0.0000 25.5572 5.0957 -11.6917 -1.2548 -7.1016 20.0167 -0.5312 -2.9751 -15.1733 -0.0796 1.8198 -5.0080 -3.0377 -4.3029 -2.7591 5.5240 -5.7206 3.8192 7.0393 -3.0616 6.4411 0.1307 -11.2971 -7.3181 4.7361 -16.0955 35.7810 -0.1597 -5.6825 13.8108 -0.0000 0.0000 0.0000 -93.0073 -5.6871 4.5052 8.3937 -14.1890 -1.0465 -0.0000 -0.0000 6.3540 15.3882 40.7208 10.1789 -7.1250 0.0000 -0.0000 -30.3093 69.5491 -18.3910 -0.0000 0.0000 0.0000 86.3297 8.2617 -7.7803 -6.8755 11.7142 -0.7061 0.0000 0.0000 25.2537 -19.0811 29.5580 -9.6837 7.1250 -0.0000 -0.0000 6.8416 0.7923 6.9853
0.00 0.00 0.00 -176.2250 59.1188 -171.5150 0.0000 0.0000 0.0000 -11.6858 -1.2008 -17.6949 9.9256 17.3678 59.2394 0.2403 -11.7310 -11.2885 0.0084 -0.5919 -1.6264 0.0000 0.0000 0.0000 26.8940 7.6616 -6.0549 -1.2677 -7.1365 20.1204 -0.8437 -1.9785 -18.1737 -0.0334 -1.1794 3.2427 -3.4031 -3.6491 -0.8746 4.4026 -4.8051 4.6632 6.2258 -2.6040 6.0358 1.1716 -10.4542 -8.5516 5.2595 -15.4557 35.5282 -0.1113 -5.2195 13.9081 0.0000 -0.0000 0.0000 -92.9524 -3.2729 -1.2577 7.2056 -12.2571 -0.7747 -0.0000 -0.0000 11.4894 15.1606 41.0295 10.0856 -7.1250 0.0000 -0.0000 -31.0868 69.7270 -19.0144 0.0000 -0.0000 0.0000 86.2438 8.4021 4.4325 -9.5450 16.0247 -1.3466 0.0000 0.0000 14.9521 -19.9094 28.1789 -9.7055 7.1250 -0.0000 -0.0000 6.1991 -0.4591 6.1856
0.00 0.00 0.00 -177.5230 70.0207 -171.3020 0.0000 0.0000 0.0000 -16.9252 -12.5964 -32.1549 5.8305 14.2620 44.2976 0.8024 -16.6905 -18.5352 0.0382 -1.2612 -3.4679 0.0000 0.0000 0.0000 27.0729 10.6634 1.7371 -0.8987 -6.0420 16.9063 -1.2442 2.3166 -20.4486 -0.0323 -1.1609 3.1917 -3.3745 -1.5471 -0.9699 2.5308 -1.9617 4.4706 4.4211 -1.1428 5.3926 1.2807 -8.0485 -10.1121 6.2571 -12.5444 35.7554 0.6079 -3.7856 14.3554 0.0000 -0.0000 0.0000 -91.7271 0.9760 -24.8137 5.5910 -9.5784 -0.4688 -0.0000 -0.0000 27.1456 11.5551 38.3154 7.2243 -7.1250 0.0000 -0.0000 -30.8880 66.3878 -16.5990 0.0000 -0.0000 0.0000 85.1736 8.8846 15.9572 -13.3918 21.8586 -2.5974 0.0000 0.0000 5.2308 -21.2793 30.1465 -11.0671 7.1250 -0.0000 -0.0000 5.6437 1.8162 5.8478
0.00 0.00 0.00 -176.1960 76.5832 -168.4430 0.0000 0.0000 0.0000 -15.4224 -16.7643 -34.8457 2.1740 9.2195 26.4843 0.3788 -15.9185 -14.7883 0.0019 0.2831 0.7779 0.0000 0.0000 0.0000 26.6452 9.1946 13.0212 0.0000 0.0000 -0.0000 -0.6580 6.4133 -14.4909 -0.0063 -0.5117 1.4061 -3.4883 -0.9709 -2.0339 1.6967 -1.1530 4.1263 3.6467 -0.7356 5.5324 0.8366 -6.0409 -10.0352 6.4447 -9.5971 36.2185 1.2140 -2.5559 14.4697 -0.0000 -0.0000 0.0000 -91.1105 3.2016 -37.6951 5.6019 -9.5966 -0.4706 -0.0000 -0.0000 32.5707 13.1352 39.2166 8.3929 -7.1250 0.0000 -0.0000 -30.4538 67.6049 -17.1788 -0.0000 -0.0000 0.0000 86.2288 10.3797 18.1595 -13.2025 21.5832 -2.5273 0.0000 0.0000 4.7062 -23.8619 28.0238 -11.7406 7.1250 -0.0000 -0.0000 3.8503 0.1588 3.8697
0.00 0.00 0.00 -175.8120 90.1910 -165.7260 0.0000 0.0000 0.0000 -16.9652 -9.6135 -31.5479 2.4880 9.8160 28.3828 0.4967 -7.0883 -12.7555 0.0849 -1.8798 -5.1735 0.0000 0.0000 0.0000 22.8512 10.5735 11.9061 -0.7159 -5.4071 15.0735 0.7586 16.8006 -1.4330 -0.4822 -4.4528 12.3541 -7.1306 -0.6354 -4.7603 -0.8622 -0.1893 3.8674 3.0761 -0.3880 6.7740 3.5691 -1.1145 -3.0619 10.4040 -3.2298 23.6482 2.6604 0.0408 7.9410 -0.0000 -0.0000 0.0000 -88.1558 -1.7721 -43.0660 4.8220 -8.2838 -0.3494 -0.0000 -0.0000 40.8193 12.8253 39.5246 8.2439 -7.1250 0.0000 -0.0000 -31.2511 67.7640 -17.7738 -0.0000 -0.0000 0.0000 89.4817 6.3573 26.1568 -11.8687 19.6075 -2.0580 0.0000 0.0000 4.8349 -22.9606 29.7043 -11.8562 7.1250 -0.0000 -0.0000 4.6124 1.7102 4.7633
0.00 0.00 0.00 -145.3830 92.3266 -136.4270 0.0000 0.0000 0.0000 -19.6635 -7.4300 -28.0563 2.5369 9.9046 28.6685 0.6601 -8.0552 -14.6998 0.0013 -0.2335 -0.6417 0.0000 0.0000 0.0000 19.9840 9.3978 4.2378 -3.0805 -10.8243 31.6895 1.1736 18.7858 8.3147 -1.6341 -8.0582 22.8910 -8.4216 -0.9376 -3.8209 -1.3628 -0.5532 3.7302 3.2413 -0.5810 6.1501 4.9659 0.0637 -0.7602 10.0351 -1.2035 19.2531 2.3246 0.7326 6.0133 0.0000 0.0000 0.0000 -87.7755 -3.8791 -35.6230 5.2673 -9.0347 -0.4164 -0.0000 -0.0000 37.0755 11.7003 38.7289 7.3825 -7.1250 0.0000 -0.0000 -31.3080 66.7721 -17.1146 0.0000 0.0000 0.0000 89.0871 4.8434 25.9746 -10.6260 17.7127 -1.6603 0.0000 0.0000 7.1192 -22.9599 29.5200 -11.7908 7.1250 -0.0000 -0.0000 4.5867 1.5198 4.7217
0.00 0.00 0.00 -144.2510 96.6772 -135.8550 0.0000 0.0000 0.0000 -23.9850 -3.9298 -24.0956 2.1720 9.2155 26.4719 0.8335 -7.6678 -16.3621 0.0015 0.2510 0.6895 0.0000 0.0000 0.0000 15.0181 12.2758 -5.3658 -7.1470 -15.4545 49.4283 0.2008 15.9615 20.5359 -1.2999 -7.2232 20.3782 -10.3340 -0.8658 -3.1779 -2.3384 -0.3770 3.2085 3.3062 -0.4844 5.2380 6.4776 1.1561 0.7493 8.1015 0.7558 16.2818 1.4912 1.4119 4.7952 0.0000 -0.0000 0.0000 -86.8690 -6.3884 -12.9812 6.9130 -11.7759 -0.7138 -0.0000 -0.0000 18.7480 12.2470 40.2369 7.9817 -7.1250 0.0000 -0.0000 -32.9800 68.1634 -19.1303 0.0000 -0.0000 0.0000 89.6372 4.4220 19.7712 -9.1540 15.4055 -1.2407 0.0000 0.0000 11.8120 -22.7019 31.7766 -12.4241 7.1250 -0.0000 -0.0000 5.0657 3.7828 5.4095
0.00 0.00 0.00 -137.7130 97.2669 -130.6960 0.0000 0.0000 0.0000 -26.4006 -0.4707 -19.4278 1.9354 8.7301 24.9547 1.1315 -9.2075 -19.1258 0.0002 0.0980 0.2694 0.0000 0.0000 0.0000 13.0140 10.9687 -14.5687 -10.6830 -17.7765 61.7479 0.6574 14.2857 7.1176 -0.3565 -3.8359 10.6156 -10.0445 -1.7237 -3.0956 -2.5807 -1.4625 3.8920 2.7848 -1.0492 6.0539 7.8697 1.8265 1.0412 5.8151 1.9556 14.3691 0.6856 1.8104 4.6309 0.0000 0.0000 0.0000 -85.0078 -12.3599 -0.1231 8.8262 -14.8830 -1.1551 -0.0000 -0.0000 9.7194 12.7249 39.7807 8.2217 -7.1250 0.0000 -0.0000 -31.7499 67.9424 -18.2054 0.0000 0.0000 0.0000 90.1179 4.8571 13.4653 -8.8703 14.9534 -1.1664 0.0000 0.0000 11.2675 -22.0960 30.4713 -11.6332 7.1250 -0.0000 -0.0000 5.2189 2.3165 5.4479
0.00 0.00 0.00 -133.6870 96.2169 -126.5500 0.0000 0.0000 0.0000 -26.9284 -0.5262 -16.8435 2.3642 9.5866 27.6482 1.7549 -7.2415 -23.7602 0.0115 -0.6925 -1.9031 0.0000 0.0000 0.0000 13.3455 10.3714 -25.9059 -10.8367 -17.8542 62.2500 -0.2103 7.8973 -9.2041 -0.2096 -2.9479 8.1337 -8.8120 -2.8562 -2.5831 -1.7891 -3.2056 3.5087 2.8078 -1.8623 5.5254 8.9205 2.3257 0.9843 3.2629 2.8376 13.2437 -0.3525 2.0960 4.3054 0.0000 0.0000 0.0000 -84.1989 -17.6051 9.7838 13.3637 -21.8178 -2.5869 -0.0000 -0.0000 0.1528 13.0389 40.0988 8.4840 -7.1250 0.0000 -0.0000 -31.9028 68.2980 -18.5508 0.0000 0.0000 0.0000 89.6494 3.0883 10.9521 -9.3556 15.7254 -1.2948 0.0000 0.0000 10.9387 -21.6236 31.3610 -11.6566 7.1250 -0.0000 -0.0000 5.6148 3.1272 5.9407
